<?xml version="1.0" standalone="no"?><!DOCTYPE svg PUBLIC "-//W3C//DTD SVG 1.1//EN" "http://www.w3.org/Graphics/SVG/1.1/DTD/svg11.dtd"><svg t="1637046670377" class="icon" viewBox="0 0 1024 1024" version="1.1" xmlns="http://www.w3.org/2000/svg" p-id="9474" xmlns:xlink="http://www.w3.org/1999/xlink" width="128" height="128"><defs><style type="text/css"></style></defs><path d="M490.666667 42.666667C455.253333 42.666667 426.666667 71.253333 426.666667 106.666667L426.666667 618.666667C399.786667 638.72 384 670.293333 384 704 384 762.88 431.786667 810.666667 490.666667 810.666667 549.546667 810.666667 597.333333 762.88 597.333333 704 597.333333 670.293333 581.546667 640 554.666667 618.666667L554.666667 554.666667 725.333333 554.666667 725.333333 469.333333 554.666667 469.333333 554.666667 384 725.333333 384 725.333333 298.666667 554.666667 298.666667 554.666667 213.333333 725.333333 213.333333 725.333333 128 554.666667 128 554.666667 106.666667C554.666667 71.253333 526.08 42.666667 490.666667 42.666667M0 640 0 725.333333C28.586667 725.333333 33.706667 734.293333 55.04 755.626667 76.373333 776.96 113.92 810.666667 170.666667 810.666667 227.413333 810.666667 264.96 776.96 286.293333 755.626667 290.986667 750.506667 294.826667 746.666667 298.666667 742.826667L298.666667 646.826667C264.96 657.92 241.066667 679.68 225.706667 695.04 204.373333 716.373333 199.253333 725.333333 170.666667 725.333333 142.08 725.333333 136.96 716.373333 115.626667 695.04 94.293333 673.706667 56.746667 640 0 640M682.666667 640 682.666667 725.333333C711.253333 725.333333 716.373333 734.293333 737.706667 755.626667 759.04 776.96 796.586667 810.666667 853.333333 810.666667 910.08 810.666667 947.626667 776.96 968.96 755.626667 990.293333 734.293333 995.413333 725.333333 1024 725.333333L1024 640C967.253333 640 929.706667 673.706667 908.373333 695.04 887.04 716.373333 881.92 725.333333 853.333333 725.333333 824.746667 725.333333 819.626667 716.373333 798.293333 695.04 776.96 673.706667 739.413333 640 682.666667 640M341.333333 853.333333C284.586667 853.333333 247.04 887.04 225.706667 908.373333 204.373333 929.706667 199.253333 938.666667 170.666667 938.666667 142.08 938.666667 136.96 929.706667 115.626667 908.373333 100.266667 893.013333 76.373333 871.253333 42.666667 860.16L42.666667 956.16C46.506667 960 50.346667 963.84 55.04 968.96 76.373333 990.293333 113.92 1024 170.666667 1024 227.413333 1024 264.96 990.293333 286.293333 968.96 307.626667 947.626667 312.746667 938.666667 341.333333 938.666667 369.92 938.666667 375.04 947.626667 396.373333 968.96 415.146667 987.306667 445.44 1015.466667 490.666667 1022.293333 497.493333 1024 504.746667 1024 512 1024 568.746667 1024 606.293333 990.293333 627.626667 968.96 648.96 947.626667 654.08 938.666667 682.666667 938.666667 711.253333 938.666667 716.373333 947.626667 737.706667 968.96 759.04 990.293333 796.586667 1024 853.333333 1024 910.08 1024 947.626667 990.293333 968.96 968.96 973.653333 963.84 977.493333 960 981.333333 956.16L981.333333 860.16C947.626667 871.253333 923.733333 893.013333 908.373333 908.373333 887.04 929.706667 881.92 938.666667 853.333333 938.666667 824.746667 938.666667 819.626667 929.706667 798.293333 908.373333 776.96 887.04 739.413333 853.333333 682.666667 853.333333 625.92 853.333333 588.373333 887.04 567.04 908.373333 545.706667 929.706667 540.586667 938.666667 512 938.666667 502.613333 938.666667 496.213333 937.386667 490.666667 935.253333 478.72 930.986667 471.466667 922.88 456.96 908.373333 435.626667 887.04 398.08 853.333333 341.333333 853.333333Z" p-id="9475" fill="#ffffff"></path></svg>