<?xml version="1.0" standalone="no"?><!DOCTYPE svg PUBLIC "-//W3C//DTD SVG 1.1//EN" "http://www.w3.org/Graphics/SVG/1.1/DTD/svg11.dtd"><svg t="1637046654388" class="icon" viewBox="0 0 1024 1024" version="1.1" xmlns="http://www.w3.org/2000/svg" p-id="9134" width="128" height="128" xmlns:xlink="http://www.w3.org/1999/xlink"><defs><style type="text/css"></style></defs><path d="M533.333333 577.493333A149.376 149.376 0 0 1 512 874.666667a149.333333 149.333333 0 0 1-21.333333-297.173334V234.666667h42.666666v342.826666zM341.333333 170.837333C341.333333 76.522667 417.834667 0 512 0a170.666667 170.666667 0 0 1 170.666667 170.816v309.376c79.168 55.168 128 145.92 128 245.141333 0 164.949333-133.717333 298.666667-298.666667 298.666667s-298.666667-133.717333-298.666667-298.666667c0-99.221333 48.832-189.973333 128-245.12V170.794667z m64.021334 369.706667A213.205333 213.205333 0 0 0 298.666667 725.333333c0 117.824 95.509333 213.333333 213.333333 213.333334s213.333333-95.509333 213.333333-213.333334a213.205333 213.205333 0 0 0-106.688-184.810666L597.333333 528.192V170.816A85.333333 85.333333 0 0 0 512 85.333333c-47.04 0-85.333333 38.314667-85.333333 85.482667v357.376l-21.312 12.330667z" p-id="9135" fill="#ffffff"></path></svg>